<?xml version="1.0" ?>
<!-- Uploaded to: SVG Repo, www.svgrepo.com, Generator: SVG Repo Mixer Tools -->
<svg width="800px" height="800px" viewBox="0 0 512 512" version="1.1" xml:space="preserve" xmlns="http://www.w3.org/2000/svg" xmlns:xlink="http://www.w3.org/1999/xlink">
<style type="text/css">
	.st0{display:none;}
	.st1{fill:#FFE2D2;}
	.st2{fill:#FFDE83;}
	.st3{fill:#F57070;}
	.st4{fill:#DBDBEF;}
	.st5{fill:#BCE2FF;}
	.st6{fill:#48446D;}
	.st7{fill:#6E78FF;}
	.st8{fill:#FFBE83;}
	.st9{fill:#F5949E;}
	.st10{fill:#D0FF67;}
	.st11{fill:#C69C6D;}
	.st12{fill:#C5BDD3;}
	.st13{fill:#FFE2B8;}
	.st14{fill:#F54670;}
</style>
<g class="st0" id="Layer_1"/>
<g id="Layer_2">
<g>
<path class="st2" d="M444.93,235.09c-5.99-3.03-12.8-2.47-18.22,1.5l-98.97,72.63l63.36,63.36c2.73,2.73,2.73,7.16,0,9.9    c-1.37,1.36-3.16,2.05-4.95,2.05c-1.79,0-3.59-0.69-4.95-2.05l-64.88-64.88l-26.22,19.23c-10.2,7.49-22.15,11.23-34.1,11.23    s-23.9-3.74-34.1-11.23l-26.22-19.23l-64.88,64.88c-1.36,1.36-3.16,2.05-4.95,2.05c-1.79,0-3.58-0.69-4.95-2.05    c-2.73-2.74-2.73-7.17,0-9.9l63.36-63.36l-98.97-72.63c-5.42-3.97-12.23-4.53-18.22-1.5c-5.99,3.04-9.57,8.86-9.57,15.57v85.15    c0,3.82-3.07,6.93-6.88,6.99v16.41c0.42,0,0.84,0.04,1.25,0.12c0.44,0.09,0.89,0.22,1.31,0.4c0.42,0.17,0.83,0.39,1.21,0.64    c0.38,0.26,0.74,0.55,1.06,0.87c1.3,1.3,2.05,3.11,2.05,4.95c0,1.85-0.75,3.65-2.05,4.95c-0.32,0.32-0.68,0.62-1.06,0.87    s-0.79,0.47-1.21,0.65c-0.42,0.17-0.87,0.3-1.31,0.39c-0.41,0.09-0.83,0.13-1.25,0.14v10.52c3.81,0.06,6.88,3.17,6.88,6.99v46.34    c0,9.63,7.83,17.46,17.46,17.46h362.08c9.63,0,17.46-7.83,17.46-17.46V250.66C454.5,243.95,450.92,238.13,444.93,235.09z     M108.49,404.08c-0.33,0.32-0.68,0.61-1.07,0.87c-0.38,0.25-0.78,0.46-1.21,0.64c-0.42,0.17-0.86,0.31-1.31,0.4    c-0.45,0.09-0.91,0.13-1.36,0.13c-0.46,0-0.92-0.04-1.37-0.13c-0.45-0.09-0.89-0.23-1.31-0.4c-0.42-0.18-0.83-0.39-1.21-0.64    c-0.38-0.26-0.74-0.55-1.06-0.87c-1.31-1.31-2.05-3.11-2.05-4.95c0-1.85,0.74-3.65,2.05-4.95c0.32-0.33,0.68-0.62,1.06-0.87    c0.38-0.26,0.79-0.47,1.21-0.65c0.42-0.17,0.86-0.31,1.31-0.4c0.9-0.18,1.83-0.18,2.73,0c0.45,0.09,0.89,0.23,1.31,0.4    c0.43,0.18,0.83,0.39,1.21,0.65c0.39,0.25,0.74,0.54,1.07,0.87c1.3,1.3,2.05,3.1,2.05,4.95    C110.54,400.97,109.79,402.77,108.49,404.08z M413.41,404.08c-1.3,1.3-3.1,2.04-4.95,2.04c-1.84,0-3.64-0.74-4.95-2.04    c-1.3-1.31-2.05-3.11-2.05-4.95c0-1.85,0.75-3.65,2.05-4.95c1.31-1.31,3.11-2.05,4.95-2.05c1.85,0,3.65,0.74,4.95,2.05    c1.31,1.3,2.05,3.1,2.05,4.95C415.46,400.97,414.72,402.77,413.41,404.08z"/>
<path class="st4" d="M399.63,198.47c-0.08,0-0.17,0-0.25-0.01c-0.17-0.01-0.33-0.02-0.5-0.04c-3.51-0.38-6.25-3.34-6.25-6.95    V73.28c0-8.7-7.08-15.78-15.78-15.78h-241.7c-8.7,0-15.78,7.08-15.78,15.78v170.95l110.81,81.32c15.44,11.33,36.2,11.32,51.64,0    l113.67-83.41c0.01-0.01,0.03-0.02,0.04-0.03l3.35-2.45l1-0.74v-40.46C399.8,198.46,399.71,198.47,399.63,198.47z M334.11,211.21    c-8.78,15.87-22.35,32.48-40.64,49.71c-0.17,0.15-0.33,0.3-0.51,0.44c-0.43,0.39-0.88,0.77-1.33,1.15l-0.4,0.33    c-0.76,0.64-1.49,1.26-2.32,1.89c-0.62,0.46-1.25,0.9-1.89,1.33l-0.14,0.09c-0.69,0.48-1.53,1.04-2.44,1.59    c-0.68,0.42-1.37,0.8-2.06,1.18c-0.89,0.49-1.8,0.95-2.68,1.37c-0.67,0.32-1.34,0.62-2.01,0.91c-0.9,0.38-1.86,0.75-2.96,1.14    l-0.26,0.1c-0.55,0.19-1.11,0.39-1.67,0.57c-1.19,0.37-2.36,0.67-3.24,0.89l-0.43,0.1c-0.45,0.12-0.9,0.23-1.35,0.33    c-1.33,0.28-2.6,0.47-3.67,0.61l-0.35,0.06c-0.36,0.06-0.73,0.12-1.1,0.16c-1.81,0.2-3.49,0.31-5.14,0.33h-0.15    c-0.2,0.01-0.42,0.01-0.63,0.01c-1.39,0-2.86-0.07-4.44-0.2c-0.37-0.03-0.73-0.07-1.1-0.12l-0.34-0.05    c-1.07-0.11-2.35-0.27-3.7-0.51c-0.45-0.08-0.9-0.18-1.35-0.28l-0.43-0.1c-0.89-0.19-2.06-0.46-3.28-0.8    c-0.56-0.16-1.12-0.34-1.68-0.52l-0.25-0.08c-1.1-0.36-2.08-0.71-3.01-1.07c-0.68-0.27-1.34-0.55-2.01-0.84    c-0.9-0.4-1.83-0.84-2.76-1.32c-0.69-0.35-1.37-0.71-2.05-1.1c-0.96-0.54-1.85-1.1-2.52-1.54l-0.14-0.08    c-0.64-0.41-1.28-0.83-1.9-1.27c-0.86-0.61-1.62-1.22-2.36-1.8l-0.45-0.36c-0.45-0.35-0.9-0.71-1.35-1.1    c-0.18-0.14-0.34-0.27-0.51-0.42c-19.65-17.49-34.11-34.45-43.3-50.73c-7.78-13.79-11.79-27.11-11.96-39.85    c-0.42-29.53,23.27-53.9,52.81-54.32c13.75-0.18,26.79,4.82,36.79,13.96c9.73-9.42,22.62-14.8,36.38-14.99    c14.29-0.18,27.84,5.18,38.1,15.16c10.26,9.97,16.02,23.34,16.22,37.65C346.34,182.24,342.31,196.4,334.11,211.21z"/>
<path class="st3" d="M320.17,141.2c-7.58-7.37-17.6-11.36-28.14-11.19c-12.18,0.17-23.44,5.85-30.88,15.57    c-1.3,1.71-3.31,2.72-5.46,2.75h-0.1c-2.11,0-4.11-0.95-5.44-2.59c-7.71-9.51-19.12-14.91-31.29-14.7    c-21.82,0.31-39.32,18.31-39.02,40.13c0.18,12.47,4.97,25.85,14.3,40.04c8.39,12.76,20.46,26.17,36.16,40.16    c0.16,0.13,0.3,0.24,0.44,0.37c0.29,0.25,0.59,0.48,0.89,0.72l0.49,0.38c0.64,0.52,1.23,0.98,1.76,1.37    c0.44,0.31,0.9,0.6,1.35,0.89l0.15,0.1c0.57,0.36,1.22,0.77,1.86,1.14c0.5,0.28,1.01,0.54,1.52,0.8c0.69,0.36,1.37,0.68,2.03,0.97    c0.49,0.22,0.98,0.43,1.48,0.62c0.66,0.26,1.39,0.52,2.22,0.79l0.27,0.09c0.38,0.12,0.76,0.25,1.15,0.36    c0.84,0.24,1.74,0.44,2.43,0.59l0.57,0.12c0.24,0.06,0.49,0.12,0.74,0.16c0.93,0.17,1.91,0.29,2.74,0.38    c0.23,0.02,0.46,0.05,0.69,0.08c0.13,0.02,0.25,0.04,0.38,0.05c1.33,0.11,2.55,0.15,3.73,0.14h0.23c1.1-0.02,2.34-0.1,3.7-0.25    c0.12-0.01,0.24-0.03,0.37-0.05c0.23-0.04,0.46-0.08,0.7-0.11c0.83-0.12,1.8-0.26,2.71-0.45c0.26-0.06,0.5-0.12,0.75-0.19    l0.56-0.14c0.73-0.18,1.58-0.39,2.4-0.65c0.39-0.12,0.77-0.26,1.15-0.4l0.28-0.09c0.82-0.3,1.53-0.57,2.17-0.85    c0.5-0.21,0.99-0.43,1.49-0.67c0.63-0.3,1.3-0.64,1.97-1.01c0.52-0.28,1.02-0.56,1.52-0.86c0.62-0.38,1.26-0.81,1.8-1.18l0.15-0.1    c0.45-0.31,0.9-0.61,1.35-0.95c0.51-0.38,1.07-0.85,1.66-1.35l0.52-0.44c0.3-0.25,0.6-0.49,0.89-0.76    c0.14-0.13,0.28-0.25,0.42-0.37c14.61-13.78,25.92-26.94,33.91-39.41c9.67-15.11,14.45-29.21,14.26-42.19    C332.01,158.45,327.75,148.57,320.17,141.2z M235.92,166.29c-3.01,2.43-7.42,1.97-9.85-1.03c-1.66-2.05-4.08-3.22-6.64-3.22h-0.18    c-2.24,0.03-4.38,0.95-5.98,2.6c-1.6,1.64-2.46,3.81-2.43,6.09c0.06,3.87-3.03,7.04-6.9,7.1h-0.1c-3.82,0-6.94-3.07-7-6.9    c-0.17-12.45,9.81-22.72,22.26-22.89h0.27c6.86,0,13.25,3.06,17.58,8.4C239.38,159.45,238.92,163.85,235.92,166.29z"/>
<path class="st6" d="M329.93,131.17c-10.26-9.98-23.81-15.34-38.1-15.16c-13.76,0.19-26.65,5.57-36.38,14.99    c-10-9.14-23.04-14.14-36.79-13.96c-29.54,0.42-53.23,24.79-52.81,54.32c0.17,12.74,4.18,26.06,11.96,39.85    c9.19,16.28,23.65,33.24,43.3,50.73c0.17,0.15,0.33,0.28,0.51,0.42c0.45,0.39,0.9,0.75,1.35,1.1l0.45,0.36    c0.74,0.58,1.5,1.19,2.36,1.8c0.62,0.44,1.26,0.86,1.9,1.27l0.14,0.08c0.67,0.44,1.56,1,2.52,1.54c0.68,0.39,1.36,0.75,2.05,1.1    c0.93,0.48,1.86,0.92,2.76,1.32c0.67,0.29,1.33,0.57,2.01,0.84c0.93,0.36,1.91,0.71,3.01,1.07l0.25,0.08    c0.56,0.18,1.12,0.36,1.68,0.52c1.22,0.34,2.39,0.61,3.28,0.8l0.43,0.1c0.45,0.1,0.9,0.2,1.35,0.28c1.35,0.24,2.63,0.4,3.7,0.51    l0.34,0.05c0.37,0.05,0.73,0.09,1.1,0.12c1.58,0.13,3.05,0.2,4.44,0.2c0.21,0,0.43,0,0.63-0.01h0.15    c1.65-0.02,3.33-0.13,5.14-0.33c0.37-0.04,0.74-0.1,1.1-0.16l0.35-0.06c1.07-0.14,2.34-0.33,3.67-0.61    c0.45-0.1,0.9-0.21,1.35-0.33l0.43-0.1c0.88-0.22,2.05-0.52,3.24-0.89c0.56-0.18,1.12-0.38,1.67-0.57l0.26-0.1    c1.1-0.39,2.06-0.76,2.96-1.14c0.67-0.29,1.34-0.59,2.01-0.91c0.88-0.42,1.79-0.88,2.68-1.37c0.69-0.38,1.38-0.76,2.06-1.18    c0.91-0.55,1.75-1.11,2.44-1.59l0.14-0.09c0.64-0.43,1.27-0.87,1.89-1.33c0.83-0.63,1.56-1.25,2.32-1.89l0.4-0.33    c0.45-0.38,0.9-0.76,1.33-1.15c0.18-0.14,0.34-0.29,0.51-0.44c18.29-17.23,31.86-33.84,40.64-49.71    c8.2-14.81,12.23-28.97,12.04-42.39C345.95,154.51,340.19,141.14,329.93,131.17z M317.89,211.21    c-7.99,12.47-19.3,25.63-33.91,39.41c-0.14,0.12-0.28,0.24-0.42,0.37c-0.29,0.27-0.59,0.51-0.89,0.76l-0.52,0.44    c-0.59,0.5-1.15,0.97-1.66,1.35c-0.45,0.34-0.9,0.64-1.35,0.95l-0.15,0.1c-0.54,0.37-1.18,0.8-1.8,1.18c-0.5,0.3-1,0.58-1.52,0.86    c-0.67,0.37-1.34,0.71-1.97,1.01c-0.5,0.24-0.99,0.46-1.49,0.67c-0.64,0.28-1.35,0.55-2.17,0.85l-0.28,0.09    c-0.38,0.14-0.76,0.28-1.15,0.4c-0.82,0.26-1.67,0.47-2.4,0.65l-0.56,0.14c-0.25,0.07-0.49,0.13-0.75,0.19    c-0.91,0.19-1.88,0.33-2.71,0.45c-0.24,0.03-0.47,0.07-0.7,0.11c-0.13,0.02-0.25,0.04-0.37,0.05c-1.36,0.15-2.6,0.23-3.7,0.25    h-0.23c-1.18,0.01-2.4-0.03-3.73-0.14c-0.13-0.01-0.25-0.03-0.38-0.05c-0.23-0.03-0.46-0.06-0.69-0.08    c-0.83-0.09-1.81-0.21-2.74-0.38c-0.25-0.04-0.5-0.1-0.74-0.16l-0.57-0.12c-0.69-0.15-1.59-0.35-2.43-0.59    c-0.39-0.11-0.77-0.24-1.15-0.36l-0.27-0.09c-0.83-0.27-1.56-0.53-2.22-0.79c-0.5-0.19-0.99-0.4-1.48-0.62    c-0.66-0.29-1.34-0.61-2.03-0.97c-0.51-0.26-1.02-0.52-1.52-0.8c-0.64-0.37-1.29-0.78-1.86-1.14l-0.15-0.1    c-0.45-0.29-0.91-0.58-1.35-0.89c-0.53-0.39-1.12-0.85-1.76-1.37l-0.49-0.38c-0.3-0.24-0.6-0.47-0.89-0.72    c-0.14-0.13-0.28-0.24-0.44-0.37c-15.7-13.99-27.77-27.4-36.16-40.16c-9.33-14.19-14.12-27.57-14.3-40.04    c-0.3-21.82,17.2-39.82,39.02-40.13c12.17-0.21,23.58,5.19,31.29,14.7c1.33,1.64,3.33,2.59,5.44,2.59h0.1    c2.15-0.03,4.16-1.04,5.46-2.75c7.44-9.72,18.7-15.4,30.88-15.57c10.54-0.17,20.56,3.82,28.14,11.19    c7.58,7.37,11.84,17.25,11.98,27.82C332.34,182,327.56,196.1,317.89,211.21z"/>
<path class="st6" d="M235.92,166.29c-3.01,2.43-7.42,1.97-9.85-1.03c-1.66-2.05-4.08-3.22-6.64-3.22h-0.18    c-2.24,0.03-4.38,0.95-5.98,2.6c-1.6,1.64-2.46,3.81-2.43,6.09c0.06,3.87-3.03,7.04-6.9,7.1h-0.1c-3.82,0-6.94-3.07-7-6.9    c-0.17-12.45,9.81-22.72,22.26-22.89h0.27c6.86,0,13.25,3.06,17.58,8.4C239.38,159.45,238.92,163.85,235.92,166.29z"/>
<path class="st6" d="M110.54,399.13c0,1.84-0.75,3.64-2.05,4.95c-0.33,0.32-0.68,0.61-1.07,0.87c-0.38,0.25-0.78,0.46-1.21,0.64    c-0.42,0.17-0.86,0.31-1.31,0.4c-0.45,0.09-0.91,0.13-1.36,0.13c-0.46,0-0.92-0.04-1.37-0.13c-0.45-0.09-0.89-0.23-1.31-0.4    c-0.42-0.18-0.83-0.39-1.21-0.64c-0.38-0.26-0.74-0.55-1.06-0.87c-1.31-1.31-2.05-3.11-2.05-4.95c0-1.85,0.74-3.65,2.05-4.95    c0.32-0.33,0.68-0.62,1.06-0.87c0.38-0.26,0.79-0.47,1.21-0.65c0.42-0.17,0.86-0.31,1.31-0.4c0.9-0.18,1.83-0.18,2.73,0    c0.45,0.09,0.89,0.23,1.31,0.4c0.43,0.18,0.83,0.39,1.21,0.65c0.39,0.25,0.74,0.54,1.07,0.87    C109.79,395.48,110.54,397.28,110.54,399.13z"/>
<path class="st6" d="M415.46,399.13c0,1.84-0.74,3.64-2.05,4.95c-1.3,1.3-3.1,2.04-4.95,2.04c-1.84,0-3.64-0.74-4.95-2.04    c-1.3-1.31-2.05-3.11-2.05-4.95c0-1.85,0.75-3.65,2.05-4.95c1.31-1.31,3.11-2.05,4.95-2.05c1.85,0,3.65,0.74,4.95,2.05    C414.72,395.48,415.46,397.28,415.46,399.13z"/>
<path class="st6" d="M468.5,250.66v186.38c0,17.35-14.11,31.46-31.46,31.46H74.96c-17.35,0-31.46-14.11-31.46-31.46V390.7    c0-3.86,3.13-7,7-7c0.04,0,0.08,0,0.12,0.01c3.81,0.06,6.88,3.17,6.88,6.99v46.34c0,9.63,7.83,17.46,17.46,17.46h362.08    c9.63,0,17.46-7.83,17.46-17.46V250.66c0-6.71-3.58-12.53-9.57-15.57c-5.99-3.03-12.8-2.47-18.22,1.5l-98.97,72.63l63.36,63.36    c2.73,2.73,2.73,7.16,0,9.9c-1.37,1.36-3.16,2.05-4.95,2.05c-1.79,0-3.59-0.69-4.95-2.05l-64.88-64.88l-26.22,19.23    c-10.2,7.49-22.15,11.23-34.1,11.23s-23.9-3.74-34.1-11.23l-26.22-19.23l-64.88,64.88c-1.36,1.36-3.16,2.05-4.95,2.05    c-1.79,0-3.58-0.69-4.95-2.05c-2.73-2.74-2.73-7.17,0-9.9l63.36-63.36l-98.97-72.63c-5.42-3.97-12.23-4.53-18.22-1.5    c-5.99,3.04-9.57,8.86-9.57,15.57v85.15c0,3.82-3.07,6.93-6.88,6.99c-0.04,0.01-0.08,0.01-0.12,0.01c-3.87,0-7-3.14-7-7v-85.15    c0-11.92,6.61-22.67,17.24-28.06c10.64-5.39,23.22-4.35,32.83,2.71l11.8,8.65V73.28c0-16.42,13.36-29.78,29.78-29.78h241.7    c16.42,0,29.78,13.36,29.78,29.78v118.19c0,3.78-3,6.85-6.75,6.99c-0.08,0-0.17,0.01-0.25,0.01c-0.08,0-0.17,0-0.25-0.01    c-0.17-0.01-0.33-0.02-0.5-0.04c-3.51-0.38-6.25-3.34-6.25-6.95V73.28c0-8.7-7.08-15.78-15.78-15.78h-241.7    c-8.7,0-15.78,7.08-15.78,15.78v170.95l110.81,81.32c15.44,11.33,36.2,11.32,51.64,0l113.67-83.41c0.01-0.01,0.03-0.02,0.04-0.03    l3.35-2.45l1-0.74l18.55-13.61c9.61-7.06,22.19-8.1,32.83-2.71C461.89,227.99,468.5,238.74,468.5,250.66z"/>
<path class="st6" d="M57.5,366.19c0,1.85-0.75,3.65-2.05,4.95c-0.32,0.32-0.68,0.62-1.06,0.87s-0.79,0.47-1.21,0.65    c-0.42,0.17-0.87,0.3-1.31,0.39c-0.41,0.09-0.83,0.13-1.25,0.14H50.5c-0.46,0-0.92-0.04-1.37-0.14c-0.44-0.09-0.88-0.22-1.31-0.39    c-0.42-0.18-0.83-0.4-1.21-0.65s-0.74-0.55-1.06-0.87c-1.3-1.3-2.05-3.11-2.05-4.95c0-1.84,0.75-3.65,2.05-4.95    c0.32-0.32,0.68-0.61,1.06-0.87c0.38-0.25,0.79-0.47,1.21-0.64c0.43-0.18,0.87-0.31,1.31-0.4c0.49-0.1,1-0.14,1.49-0.12    c0.42,0,0.84,0.04,1.25,0.12c0.44,0.09,0.89,0.22,1.31,0.4c0.42,0.17,0.83,0.39,1.21,0.64c0.38,0.26,0.74,0.55,1.06,0.87    C56.75,362.54,57.5,364.35,57.5,366.19z"/>
</g>
</g>
</svg>